<svg
    version="1.2"
    overflow="visible"
    preserveAspectRatio="none"
    viewBox="-2.9974999999999987 0 55 55"
    width="32"
    height="32"
>
    <g>
        <g>
            <path
                d="M48,7H32V5c0-2.8-2.2-5-5-5h-6c-2.8,0-5,2.2-5,5v2H1C0.4,7,0,7.4,0,8c0,0.6,0.4,1,1,1h4.2L8,50c0,2.8,2.2,5,5,5h23    c2.8,0,5-2.2,5-4.9L43.8,9H48c0.6,0,1-0.4,1-1C49,7.4,48.6,7,48,7z M18,5c0-1.7,1.3-3,3-3h6c1.7,0,3,1.3,3,3v2H18V5z M39,50    c0,1.7-1.3,3-3,3H13c-1.7,0-3-1.3-3-3.1L7.2,9h34.5L39,50z M18.7,48.2C18.8,48.2,18.8,48.2,18.7,48.2c0.6-0.1,1-0.5,1-1.1    l-2.6-30.8c0-0.5-0.5-1-1.1-0.9c-0.6,0-1,0.5-0.9,1.1l2.6,30.8C17.8,47.8,18.2,48.2,18.7,48.2z M31.3,48.2    C31.3,48.2,31.3,48.2,31.3,48.2c0.6,0,1-0.4,1.1-0.9L35,16.4c0-0.5-0.4-1-0.9-1.1c-0.5,0-1,0.4-1.1,0.9l-2.6,30.8    C30.3,47.6,30.7,48.1,31.3,48.2z M25,48c0.6,0,1-0.4,1-1V16c0-0.6-0.4-1-1-1c-0.6,0-1,0.4-1,1v31C24,47.6,24.4,48,25,48z"
            />
        </g>
    </g>
    <g />
</svg>
